<svg width="43" height="50" viewBox="0 0 43 50" fill="none" xmlns="http://www.w3.org/2000/svg">
<g filter="url(#filter0_d_1607_5)">
<path d="M4.82 42V37.5H10.7V4.5H4.82V-2.86102e-06H25.88C28.32 -2.86102e-06 30.48 0.439997 32.36 1.32C34.28 2.2 35.76 3.44 36.8 5.04C37.88 6.6 38.42 8.44 38.42 10.56V11.04C38.42 13 38.04 14.62 37.28 15.9C36.52 17.14 35.62 18.12 34.58 18.84C33.54 19.52 32.52 20.02 31.52 20.34V21.18C32.52 21.42 33.56 21.9 34.64 22.62C35.72 23.3 36.62 24.28 37.34 25.56C38.1 26.84 38.48 28.46 38.48 30.42V31.02C38.48 33.3 37.92 35.28 36.8 36.96C35.72 38.6 34.22 39.86 32.3 40.74C30.42 41.58 28.26 42 25.82 42H4.82ZM15.74 37.44H25.28C27.92 37.44 29.94 36.82 31.34 35.58C32.74 34.34 33.44 32.66 33.44 30.54V30C33.44 27.88 32.74 26.2 31.34 24.96C29.94 23.72 27.92 23.1 25.28 23.1H15.74V37.44ZM15.74 18.54H25.46C27.86 18.54 29.78 17.94 31.22 16.74C32.66 15.5 33.38 13.88 33.38 11.88V11.28C33.38 9.24 32.66 7.62 31.22 6.42C29.82 5.18 27.9 4.56 25.46 4.56H15.74V18.54Z" fill="black"/>
</g>
<defs>
<filter id="filter0_d_1607_5" x="0.819946" y="0" width="41.66" height="50" filterUnits="userSpaceOnUse" color-interpolation-filters="sRGB">
<feFlood flood-opacity="0" result="BackgroundImageFix"/>
<feColorMatrix in="SourceAlpha" type="matrix" values="0 0 0 0 0 0 0 0 0 0 0 0 0 0 0 0 0 0 127 0" result="hardAlpha"/>
<feOffset dy="4"/>
<feGaussianBlur stdDeviation="2"/>
<feComposite in2="hardAlpha" operator="out"/>
<feColorMatrix type="matrix" values="0 0 0 0 0 0 0 0 0 0 0 0 0 0 0 0 0 0 0.25 0"/>
<feBlend mode="normal" in2="BackgroundImageFix" result="effect1_dropShadow_1607_5"/>
<feBlend mode="normal" in="SourceGraphic" in2="effect1_dropShadow_1607_5" result="shape"/>
</filter>
</defs>
</svg>
